<?xml version="1.0" encoding="UTF-8" standalone="no"?>
<!-- Created with Inkscape (http://www.inkscape.org/) -->

<svg
   xmlns:dc="http://purl.org/dc/elements/1.1/"
   xmlns:cc="http://creativecommons.org/ns#"
   xmlns:rdf="http://www.w3.org/1999/02/22-rdf-syntax-ns#"
   xmlns:svg="http://www.w3.org/2000/svg"
   xmlns="http://www.w3.org/2000/svg"
   xmlns:sodipodi="http://sodipodi.sourceforge.net/DTD/sodipodi-0.dtd"
   xmlns:inkscape="http://www.inkscape.org/namespaces/inkscape"
   width="64px"
   height="64px"
   id="svg2985"
   version="1.1"
   inkscape:version="0.48.1 r9760"
   sodipodi:docname="New document 2">
  <defs
     id="defs2987" />
  <sodipodi:namedview
     id="base"
     pagecolor="#ffffff"
     bordercolor="#666666"
     borderopacity="1.0"
     inkscape:pageopacity="0.0"
     inkscape:pageshadow="2"
     inkscape:zoom="10.121538"
     inkscape:cx="31.977743"
     inkscape:cy="32.464772"
     inkscape:current-layer="layer1"
     showgrid="true"
     inkscape:document-units="px"
     inkscape:grid-bbox="true"
     inkscape:window-width="1440"
     inkscape:window-height="843"
     inkscape:window-x="-3"
     inkscape:window-y="-2"
     inkscape:window-maximized="1" />
  <metadata
     id="metadata2990">
    <rdf:RDF>
      <cc:Work
         rdf:about="">
        <dc:format>image/svg+xml</dc:format>
        <dc:type
           rdf:resource="http://purl.org/dc/dcmitype/StillImage" />
        <dc:title></dc:title>
      </cc:Work>
    </rdf:RDF>
  </metadata>
  <g
     id="layer1"
     inkscape:label="Layer 1"
     inkscape:groupmode="layer">
    <path
       style="fill:none;stroke:#000000;stroke-width:1px;stroke-linecap:butt;stroke-linejoin:miter;stroke-opacity:1"
       d="M 12.909091,20.181819 C 12.408692,39.044658 32.734543,43.886063 32.545454,62.545455 32.698481,43.811741 50.53549,39.341012 50.90909,20.363637"
       id="path2999"
       inkscape:connector-curvature="0"
       sodipodi:nodetypes="ccc" />
    <path
       style="fill:#ff0000;fill-opacity:1"
       d="M 32.11037,55.878582 C 30.892909,51.507649 28.924685,48.324675 23.089936,41.290909 19.601488,37.0856 18.530797,35.677403 17.143123,33.469533 c -1.221659,-1.94373 -1.400083,-2.536558 -0.373327,-1.240405 1.208072,1.525041 3.547941,3.571727 5.213948,4.560647 3.409525,2.023849 6.685745,2.86206 10.634438,2.720789 5.267903,-0.188468 9.687467,-2.140807 13.415262,-5.926179 2.289852,-2.325222 0.354383,0.872376 -4.208975,6.953666 -1.886544,2.514072 -4.00258,5.430131 -4.702305,6.480131 -1.571239,2.357785 -3.190179,5.713183 -3.859904,8 -0.278221,0.95 -0.557411,1.868998 -0.620422,2.042218 -0.07417,0.203913 -0.261544,-0.212736 -0.531468,-1.181818 z"
       id="path3007"
       inkscape:connector-curvature="0" />
    <path
       sodipodi:type="arc"
       style="fill:#ff0000;fill-rule:evenodd;stroke:#000000;stroke-width:1px;stroke-linecap:butt;stroke-linejoin:miter;stroke-opacity:1"
       id="path2995"
       sodipodi:cx="25.363636"
       sodipodi:cy="35.18182"
       sodipodi:rx="13"
       sodipodi:ry="13"
       d="m 38.363636,35.18182 a 13,13 0 1 1 -26,0 13,13 0 1 1 26,0 z"
       transform="matrix(1.4457564,0,0,1.4500279,-4.6696388,-30.933617)" />
    <path
       style="fill:#ff0000;fill-opacity:1;stroke:#000000;stroke-linecap:round;stroke-linejoin:bevel;stroke-opacity:1;marker-start:none"
       d="M 31.971268,61.211269 C 31.837792,58.019341 31.074705,55.069002 29.625839,52.143087 28.136245,49.13492 26.607206,46.99524 22.215455,41.773266 17.807637,36.532187 15.916605,33.813921 14.517043,30.707178 13.095352,27.551314 12.419758,24.45236 12.422094,21.097632 c 0.0026,-3.804532 0.546991,-6.424967 1.963987,-9.454545 1.845932,-3.9466582 5.316419,-7.4066773 9.302627,-9.2745703 2.753846,-1.2904222 5.268467,-1.85023801 8.31103,-1.85023801 3.042562,0 5.557183,0.55981581 8.31103,1.85023801 5.481643,2.5686374 9.609867,7.8116903 10.810988,13.7305023 0.649071,3.198451 0.541616,5.889166 -0.401112,10.044068 -0.42821,1.887253 -1.287551,4.274489 -2.180416,6.057161 -1.35899,2.713323 -2.825439,4.904803 -6.31876,9.442839 -4.789514,6.221865 -6.521682,9.069962 -7.801104,12.826866 -0.772074,2.267123 -1.326316,5.344257 -1.328842,7.377679 l -8.75e-4,0.704546 -0.531653,0 -0.531653,0 z"
       id="path3009"
       inkscape:connector-curvature="0"
       sodipodi:nodetypes="cssscsssssssssscccc" />
  </g>
</svg>
